<svg
   width="42.372021mm"
   height="30.43638mm"
   viewBox="0 0 42.372021 30.43638"
   version="1.1"
   id="svg1"
   xml:space="preserve"
   xmlns="http://www.w3.org/2000/svg"
   xmlns:svg="http://www.w3.org/2000/svg"><defs
     id="defs1" /><g
     id="layer1"
     transform="translate(-83.655617,-133.28181)"><path
       d="m 104.14404,146.60164 c -0.20326,-0.13692 -0.67189,-0.18633 -1.03183,-0.11857 -0.0466,-0.33877 -0.23573,-0.63379 -0.58015,-0.89916 l -0.19761,-0.13127 -0.13128,0.19762 c -0.25972,0.3924 -0.3303,1.03889 -0.0522,1.46518 -0.1228,0.0663 -0.36418,0.15668 -0.68318,0.15103 h -6.135983 c -0.122804,0.71707 0.08187,1.64869 0.621079,2.28811 0.523682,0.61967 1.3085,0.93445 2.334693,0.93445 2.221771,0 3.866221,-1.02337 4.635511,-2.88237 0.30207,0.006 0.9542,0.001 1.28874,-0.63802 0.0212,-0.0353 0.0932,-0.18633 0.11998,-0.24138 z m 11.1125,0 c -0.20326,-0.13692 -0.67189,-0.18633 -1.03183,-0.11857 -0.0466,-0.33877 -0.23573,-0.63379 -0.58015,-0.89916 l -0.19761,-0.13127 -0.13128,0.19762 c -0.25972,0.3924 -0.3303,1.03889 -0.0522,1.46518 -0.1228,0.0663 -0.36418,0.15668 -0.68318,0.15103 h -6.13598 c -0.12281,0.71707 0.0819,1.64869 0.62108,2.28811 0.52368,0.61967 1.3085,0.93445 2.33469,0.93445 2.22177,0 3.86622,-1.02337 4.63551,-2.88237 0.30207,0.006 0.9542,0.001 1.28874,-0.63802 0.0212,-0.0353 0.0932,-0.18633 0.11998,-0.24138 z m -17.462497,6.35 c -0.203262,-0.13692 -0.671895,-0.18633 -1.031838,-0.11857 -0.04658,-0.33877 -0.235728,-0.63379 -0.580144,-0.89916 l -0.197616,-0.13127 -0.131273,0.19762 c -0.259725,0.3924 -0.330301,1.03889 -0.05223,1.46518 -0.122804,0.0663 -0.364178,0.15668 -0.683187,0.15103 h -6.135976 c -0.122804,0.71707 0.08187,1.64869 0.621079,2.28811 0.523682,0.61967 1.308501,0.93445 2.334693,0.93445 2.221768,0 3.866216,-1.02337 4.635508,-2.88237 0.30207,0.006 0.954202,0.001 1.288738,-0.63802 0.02117,-0.0353 0.09316,-0.18633 0.119981,-0.24138 z m 11.112497,0 c -0.20326,-0.13692 -0.67189,-0.18633 -1.03183,-0.11857 -0.0466,-0.33877 -0.23573,-0.63379 -0.58015,-0.89916 l -0.19761,-0.13127 -0.13128,0.19762 c -0.25972,0.3924 -0.3303,1.03889 -0.0522,1.46518 -0.1228,0.0663 -0.36418,0.15668 -0.68318,0.15103 h -6.13598 c -0.122807,0.71707 0.0819,1.64869 0.62108,2.28811 0.52368,0.61967 1.3085,0.93445 2.33469,0.93445 2.22177,0 3.86622,-1.02337 4.63551,-2.88237 0.30207,0.006 0.9542,0.001 1.28874,-0.63802 0.0212,-0.0353 0.0932,-0.18633 0.11998,-0.24138 z m 11.64167,0 c -0.20326,-0.13692 -0.67189,-0.18633 -1.03184,-0.11857 -0.0466,-0.33877 -0.23573,-0.63379 -0.58014,-0.89916 l -0.19762,-0.13127 -0.13127,0.19762 c -0.25973,0.3924 -0.3303,1.03889 -0.0522,1.46518 -0.1228,0.0663 -0.36418,0.15668 -0.68319,0.15103 h -6.13598 c -0.1228,0.71707 0.0819,1.64869 0.62108,2.28811 0.52369,0.61967 1.3085,0.93445 2.3347,0.93445 2.22176,0 3.86621,-1.02337 4.6355,-2.88237 0.30207,0.006 0.95421,0.001 1.28874,-0.63802 0.0212,-0.0353 0.0932,-0.18633 0.11998,-0.24138 z M 97.794043,140.7808 c -0.203262,-0.13692 -0.671895,-0.18632 -1.031838,-0.11857 -0.04658,-0.33877 -0.235728,-0.63378 -0.580144,-0.89915 l -0.197616,-0.13127 -0.131273,0.19761 c -0.259725,0.39241 -0.330301,1.0389 -0.05223,1.46518 -0.122804,0.0663 -0.364178,0.15669 -0.683187,0.15104 h -6.135976 c -0.122804,0.71706 0.08187,1.64868 0.621079,2.28811 0.523682,0.61967 1.308501,0.93444 2.334693,0.93444 2.221768,0 3.866216,-1.02337 4.635508,-2.88237 0.30207,0.006 0.954202,0.001 1.288738,-0.63802 0.02117,-0.0353 0.09316,-0.18632 0.119981,-0.24137 z m 11.112497,0 c -0.20326,-0.13692 -0.67189,-0.18632 -1.03183,-0.11857 -0.0466,-0.33877 -0.23573,-0.63378 -0.58015,-0.89915 l -0.19761,-0.13127 -0.13128,0.19761 c -0.25972,0.39241 -0.3303,1.0389 -0.0522,1.46518 -0.1228,0.0663 -0.36418,0.15669 -0.68318,0.15104 h -6.13598 c -0.122807,0.71706 0.0819,1.64868 0.62108,2.28811 0.52368,0.61967 1.3085,0.93444 2.33469,0.93444 2.22177,0 3.86622,-1.02337 4.63551,-2.88237 0.30207,0.006 0.9542,0.001 1.28874,-0.63802 0.0212,-0.0353 0.0932,-0.18632 0.11998,-0.24137 z m 11.64167,0 c -0.20326,-0.13692 -0.67189,-0.18632 -1.03184,-0.11857 -0.0466,-0.33877 -0.23573,-0.63378 -0.58014,-0.89915 l -0.19762,-0.13127 -0.13127,0.19761 c -0.25973,0.39241 -0.3303,1.0389 -0.0522,1.46518 -0.1228,0.0663 -0.36418,0.15669 -0.68319,0.15104 h -6.13598 c -0.1228,0.71706 0.0819,1.64868 0.62108,2.28811 0.52369,0.61967 1.3085,0.93444 2.3347,0.93444 2.22176,0 3.86621,-1.02337 4.6355,-2.88237 0.30207,0.006 0.95421,0.001 1.28874,-0.63802 0.0212,-0.0353 0.0932,-0.18632 0.11998,-0.24137 z m -28.045833,-6.35 c -0.203262,-0.13692 -0.671895,-0.18632 -1.031839,-0.11857 -0.04658,-0.33877 -0.235727,-0.63378 -0.580144,-0.89915 l -0.197616,-0.13127 -0.131273,0.19761 c -0.259724,0.39241 -0.330301,1.0389 -0.05223,1.46518 -0.122804,0.0663 -0.364178,0.15669 -0.683187,0.15104 H 83.69011 c -0.122805,0.71706 0.08187,1.64868 0.621079,2.28811 0.523682,0.61967 1.3085,0.93444 2.334692,0.93444 2.221769,0 3.866216,-1.02337 4.635508,-2.88237 0.302071,0.006 0.954203,0.001 1.288739,-0.63802 0.02117,-0.0353 0.09316,-0.18632 0.119981,-0.24137 z m 11.112503,0 c -0.20327,-0.13692 -0.6719,-0.18632 -1.03184,-0.11857 -0.0466,-0.33877 -0.23573,-0.63378 -0.58015,-0.89915 l -0.19761,-0.13127 -0.13127,0.19761 c -0.25973,0.39241 -0.33031,1.0389 -0.0522,1.46518 -0.12281,0.0663 -0.36418,0.15669 -0.68319,0.15104 h -6.135978 c -0.122804,0.71706 0.08187,1.64868 0.621079,2.28811 0.523682,0.61967 1.308501,0.93444 2.334693,0.93444 2.221768,0 3.866216,-1.02337 4.635506,-2.88237 0.30207,0.006 0.95421,0.001 1.28874,-0.63802 0.0212,-0.0353 0.0932,-0.18632 0.11998,-0.24137 z m 11.64166,0 c -0.20326,-0.13692 -0.67189,-0.18632 -1.03183,-0.11857 -0.0466,-0.33877 -0.23573,-0.63378 -0.58015,-0.89915 l -0.19761,-0.13127 -0.13128,0.19761 c -0.25972,0.39241 -0.3303,1.0389 -0.0522,1.46518 -0.1228,0.0663 -0.36417,0.15669 -0.68318,0.15104 h -6.13598 c -0.1228,0.71706 0.0819,1.64868 0.62108,2.28811 0.52368,0.61967 1.3085,0.93444 2.33469,0.93444 2.22177,0 3.86622,-1.02337 4.63551,-2.88237 0.30207,0.006 0.9542,0.001 1.28874,-0.63802 0.0212,-0.0353 0.0932,-0.18632 0.11998,-0.24137 z m 10.58334,0 c -0.20326,-0.13692 -0.6719,-0.18632 -1.03184,-0.11857 -0.0466,-0.33877 -0.23573,-0.63378 -0.58015,-0.89915 l -0.19761,-0.13127 -0.13127,0.19761 c -0.25973,0.39241 -0.33031,1.0389 -0.0522,1.46518 -0.12281,0.0663 -0.36418,0.15669 -0.68319,0.15104 h -6.13598 c -0.1228,0.71706 0.0819,1.64868 0.62108,2.28811 0.52368,0.61967 1.3085,0.93444 2.33469,0.93444 2.22177,0 3.86622,-1.02337 4.63551,-2.88237 0.30207,0.006 0.9542,0.001 1.28874,-0.63802 0.0212,-0.0353 0.0932,-0.18632 0.11998,-0.24137 z m -33.337503,25.4 c -0.203262,-0.13692 -0.671895,-0.18632 -1.031839,-0.11857 -0.04658,-0.33877 -0.235727,-0.63378 -0.580144,-0.89915 l -0.197616,-0.13127 -0.131273,0.19761 c -0.259724,0.39241 -0.330301,1.0389 -0.05223,1.46518 -0.122804,0.0663 -0.364178,0.15669 -0.683187,0.15104 H 83.69011 c -0.122805,0.71706 0.08187,1.64868 0.621079,2.28811 0.523682,0.61967 1.3085,0.93444 2.334692,0.93444 2.221769,0 3.866216,-1.02337 4.635508,-2.88237 0.302071,0.006 0.954203,10e-4 1.288739,-0.63802 0.02117,-0.0353 0.09316,-0.18632 0.119981,-0.24137 z m 11.112503,0 c -0.20327,-0.13692 -0.6719,-0.18632 -1.03184,-0.11857 -0.0466,-0.33877 -0.23573,-0.63378 -0.58015,-0.89915 l -0.19761,-0.13127 -0.13127,0.19761 c -0.25973,0.39241 -0.33031,1.0389 -0.0522,1.46518 -0.12281,0.0663 -0.36418,0.15669 -0.68319,0.15104 h -6.135981 c -0.122804,0.71706 0.08187,1.64868 0.621079,2.28811 0.523682,0.61967 1.308501,0.93444 2.334693,0.93444 2.221768,0 3.866219,-1.02337 4.635509,-2.88237 0.30207,0.006 0.9542,10e-4 1.28874,-0.63802 0.0212,-0.0353 0.0932,-0.18632 0.11998,-0.24137 z m 11.64166,0 c -0.20326,-0.13692 -0.67189,-0.18632 -1.03183,-0.11857 -0.0466,-0.33877 -0.23573,-0.63378 -0.58015,-0.89915 l -0.19761,-0.13127 -0.13128,0.19761 c -0.25972,0.39241 -0.3303,1.0389 -0.0522,1.46518 -0.1228,0.0663 -0.36418,0.15669 -0.68318,0.15104 h -6.13598 c -0.12281,0.71706 0.0819,1.64868 0.62108,2.28811 0.52368,0.61967 1.3085,0.93444 2.33469,0.93444 2.22177,0 3.86622,-1.02337 4.63551,-2.88237 0.30207,0.006 0.9542,10e-4 1.28874,-0.63802 0.0212,-0.0353 0.0932,-0.18632 0.11998,-0.24137 z m 10.58334,0 c -0.20326,-0.13692 -0.6719,-0.18632 -1.03184,-0.11857 -0.0466,-0.33877 -0.23573,-0.63378 -0.58015,-0.89915 l -0.19761,-0.13127 -0.13127,0.19761 c -0.25973,0.39241 -0.33031,1.0389 -0.0522,1.46518 -0.12281,0.0663 -0.36418,0.15669 -0.68319,0.15104 h -6.13598 c -0.1228,0.71706 0.0819,1.64868 0.62108,2.28811 0.52368,0.61967 1.3085,0.93444 2.33469,0.93444 2.22177,0 3.86622,-1.02337 4.63551,-2.88237 0.30207,0.006 0.9542,10e-4 1.28874,-0.63802 0.0212,-0.0353 0.0932,-0.18632 0.11998,-0.24137 z"
       id="path1"
       style="fill:#ffc107;fill-opacity:1;stroke-width:0.0661458" /></g></svg>
